<svg version="1.1" xmlns="http://www.w3.org/2000/svg" xmlns:xlink="http://www.w3.org/1999/xlink" class="thumbnail-icon" viewBox="0 10.031108856201172 200 179.9377899169922"><g data-paper-data="{&quot;fillRule&quot;:&quot;evenodd&quot;,&quot;isIcon&quot;:&quot;true&quot;,&quot;iconType&quot;:&quot;icon&quot;,&quot;rawIconId&quot;:&quot;3336331&quot;,&quot;selectedEffects&quot;:{&quot;container&quot;:&quot;&quot;,&quot;transformation&quot;:&quot;&quot;,&quot;pattern&quot;:&quot;&quot;},&quot;combineTerms&quot;:&quot;frog&quot;,&quot;isDetailed&quot;:false,&quot;bounds&quot;:{&quot;x&quot;:64.99999999999997,&quot;y&quot;:203.9122873345373,&quot;width&quot;:69.10769414952813,&quot;height&quot;:62.175425330925435},&quot;iconStyle&quot;:&quot;standalone&quot;}"><path d="M26.82738,57.93158l1.86625,-1.24417l0.23328,-0.15552l3.88802,-2.25505l1.86625,-1.01089l1.55521,-0.93313l-36.23639,-42.30171v65.39658l3.88802,-2.5661zM163.76361,52.33282l1.55521,0.93313l1.86625,1.01089l3.88802,2.25505l0.31104,0.23328l1.78849,1.16641l22.93935,14.93002l3.88802,2.48834v-65.31882zM30.79317,60.03111l-0.07776,0.07776v59.87558h138.5692v-59.95334h-0.07776l-3.88802,-2.33281l-4.12131,-2.41058l-3.42146,-1.94401l-57.77605,-33.35925l-57.77605,33.35925l-3.42146,1.94401l-4.12131,2.41058zM26.82738,80.01556v-17.41835l-20.83981,13.53033l-5.98756,3.88802zM173.17263,62.59721v17.41835h26.82737l-5.98756,-3.88802zM159.95334,139.9689v-16.09642h-119.90668v16.09642zM69.98446,143.85692h-27.06065l10.18663,13.53033v0.07776l12.986,17.34059l3.88802,5.20995zM146.88958,157.38725l10.18663,-13.53033h-27.06065v36.15863l3.88802,-5.20995l12.986,-17.34059zM52.41059,163.06376l-2.64386,-3.65474l0.23328,0.54432l-39.9689,30.01555l55.67652,-9.2535l-2.64386,-3.49922zM150.23328,159.40902l-2.64386,3.65474l-10.65319,14.15241l-2.64386,3.49922l55.67652,9.2535l-39.9689,-30.01555z" fill-rule="evenodd"></path></g></svg>